<svg viewBox="0 0 800 600" xmlns="http://www.w3.org/2000/svg" shape-rendering="crispEdges">
    <!-- Wall -->
    <rect fill="#D4B896"/>
    <!-- Wall texture dots -->
    <rect x="0" y="0" fill="url(#wallTex)" opacity="0.2"/>

    <!-- Floor -->
    <rect y="440" fill="#8B6F4A"/>
    <rect y="440" fill="#A07F5A"/>
    <!-- Floor tiles horizontal -->
    <rect y="480" fill="#7A5F3A" opacity="0.6"/>
    <rect y="520" fill="#7A5F3A" opacity="0.6"/>
    <rect y="560" fill="#7A5F3A" opacity="0.6"/>
    <!-- Floor tiles vertical -->
    <rect x="100" y="440" fill="#7A5F3A" opacity="0.4"/>
    <rect x="200" y="440" fill="#7A5F3A" opacity="0.4"/>
    <rect x="300" y="440" fill="#7A5F3A" opacity="0.4"/>
    <rect x="400" y="440" fill="#7A5F3A" opacity="0.4"/>
    <rect x="500" y="440" fill="#7A5F3A" opacity="0.4"/>
    <rect x="600" y="440" fill="#7A5F3A" opacity="0.4"/>
    <rect x="700" y="440" fill="#7A5F3A" opacity="0.4"/>
    <!-- Baseboard -->
    <rect y="432" fill="#B09060"/>
    <rect y="430" fill="#C8A870"/>

    <!-- ===== WINDOW ===== -->
    <!-- Window frame outer -->
    <rect x="120" y="60" fill="#5B4030"/>
    <!-- Window frame inner -->
    <rect x="128" y="68" fill="#4A3020"/>
    <!-- SKY (dynamic) -->
    <rect id="room-sky-tl" x="132" y="72" fill="#87CEEB"/>
    <rect id="room-sky-tr" x="234" y="72" fill="#87CEEB"/>
    <rect id="room-sky-bl" x="132" y="162" fill="#6BBCD8"/>
    <rect id="room-sky-br" x="234" y="162" fill="#6BBCD8"/>
    <!-- Window cross bars -->
    <rect x="222" y="68" fill="#5B4030"/>
    <rect x="128" y="150" fill="#5B4030"/>
    <!-- Window clouds -->
    <g id="room-clouds">
      <rect x="140" y="88" fill="white" opacity="0.9"/>
      <rect x="138" y="92" fill="white" opacity="0.9"/>
      <rect x="144" y="84" fill="white" opacity="0.9"/>
      <rect x="250" y="80" fill="white" opacity="0.9"/>
      <rect x="248" y="84" fill="white" opacity="0.9"/>
      <rect x="254" y="76" fill="white" opacity="0.9"/>
    </g>
    <!-- Window trees -->
    <g id="room-trees">
      <rect x="148" y="196" fill="#2D5A1B"/>
      <rect x="140" y="168" fill="#3D7A2B"/>
      <rect x="144" y="156" fill="#4D8A3B"/>
      <rect x="260" y="196" fill="#2D5A1B"/>
      <rect x="252" y="168" fill="#3D7A2B"/>
      <rect x="256" y="156" fill="#4D8A3B"/>
    </g>
    <!-- Rain in window (animated) -->
    <g id="room-rain" opacity="0" clip-path="url(#window-clip)">
      <rect x="135" y="72" fill="#88AACC"/>
      <rect x="148" y="72" fill="#88AACC"/>
      <rect x="162" y="72" fill="#88AACC"/>
      <rect x="176" y="72" fill="#88AACC"/>
      <rect x="190" y="72" fill="#88AACC"/>
      <rect x="204" y="72" fill="#88AACC"/>
      <rect x="218" y="72" fill="#88AACC"/>
      <rect x="232" y="72" fill="#88AACC"/>
      <rect x="246" y="72" fill="#88AACC"/>
      <rect x="260" y="72" fill="#88AACC"/>
      <rect x="274" y="72" fill="#88AACC"/>
      <rect x="288" y="72" fill="#88AACC"/>
      <rect x="302" y="72" fill="#88AACC"/>
      <rect x="316" y="72" fill="#88AACC"/>
    </g>
    <!-- Stars in window (hidden by default) -->
    <g id="room-stars" opacity="0">
      <rect x="140" y="80" fill="white"/>
      <rect x="160" y="92" fill="white"/>
      <rect x="180" y="76" fill="white"/>
      <rect x="200" y="88" fill="white"/>
      <rect x="145" y="180" fill="white"/>
      <rect x="165" y="192" fill="white"/>
      <rect x="185" y="178" fill="white"/>
      <rect x="250" y="82" fill="white"/>
      <rect x="270" y="94" fill="white"/>
      <rect x="290" y="78" fill="white"/>
      <rect x="310" y="90" fill="white"/>
      <rect x="255" y="182" fill="white"/>
      <rect x="275" y="170" fill="white"/>
      <rect x="295" y="184" fill="white"/>
      <!-- Moon -->
      <rect id="room-moon" x="280" y="84" fill="#FFFACD" opacity="0"/>
      <rect x="284" y="82" fill="#FFFACD" opacity="0"/>
    </g>
    <!-- Curtains -->
    <rect x="106" y="46" fill="#4A2D80"/>
    <rect x="318" y="46" fill="#4A2D80"/>
    <rect x="108" y="46" fill="#6A4DA0" opacity="0.5"/>
    <rect x="320" y="46" fill="#6A4DA0" opacity="0.5"/>
    <!-- Curtain rod -->
    <rect x="100" y="40" fill="#8B6914"/>
    <rect x="96" y="36" fill="#C4920A"/>
    <rect x="350" y="36" fill="#C4920A"/>

    <!-- ===== BED (side view against left wall) ===== -->
    <!-- Headboard (top, against wall) -->
    <rect x="0" y="294" fill="#6B4226"/>
    <rect x="0" y="292" fill="#8B5A36"/>
    <rect x="8" y="298" fill="#7A5030"/>
    <rect x="6" y="296" fill="none" stroke="#5A3020" stroke-width="2"/>
    <rect x="144" y="298" fill="#7A5030"/>
    <rect x="142" y="296" fill="none" stroke="#5A3020" stroke-width="2"/>
    <!-- Left wall side frame -->
    <rect x="0" y="314" fill="#6B4226"/>
    <!-- Mattress -->
    <rect x="14" y="314" fill="#E8D8C0"/>
    <rect x="12" y="312" fill="#F0E0C8"/>
    <!-- Blanket -->
    <rect x="14" y="334" fill="#3D6B9E"/>
    <rect x="12" y="332" fill="#4D7BAE"/>
    <rect x="18" y="344" fill="#5D8BBE" opacity="0.5"/>
    <rect x="18" y="360" fill="#5D8BBE" opacity="0.5"/>
    <rect x="18" y="376" fill="#5D8BBE" opacity="0.5"/>
    <rect x="18" y="392" fill="#5D8BBE" opacity="0.5"/>
    <rect x="18" y="408" fill="#5D8BBE" opacity="0.5"/>
    <!-- Pillows at headboard -->
    <rect x="20" y="316" fill="#F5F0E8"/>
    <rect x="18" y="314" fill="none" stroke="#DDD" stroke-width="2"/>
    <rect x="150" y="316" fill="#F5F0E8"/>
    <rect x="148" y="314" fill="none" stroke="#DDD" stroke-width="2"/>
    <!-- Footboard (right side) -->
    <rect x="266" y="292" fill="#6B4226"/>
    <rect x="264" y="290" fill="#8B5A36"/>
    <!-- Bed legs -->
    <rect x="14" y="448" fill="#5A3820"/>
    <rect x="254" y="448" fill="#5A3820"/>

    <!-- ===== NIGHTSTAND (beside footboard) ===== -->
    <rect x="288" y="360" fill="#6B4226"/>
    <rect x="286" y="358" fill="#8B5A36"/>
    <rect x="286" y="358" fill="none" stroke="#5A3020" stroke-width="3"/>
    <rect x="286" y="405" fill="#5A3020"/>
    <rect x="318" y="378" fill="#C4920A"/>
    <rect x="318" y="418" fill="#C4920A"/>
    <!-- Lamp on nightstand -->
    <rect x="296" y="322" fill="#E8C060" opacity="0.85"/>
    <rect x="306" y="312" fill="#AA8030"/>
    <rect x="294" y="358" fill="#AA8030"/>
    <rect x="292" y="354" fill="#CC9A3A"/>
    <!-- Lamp glow -->
    <rect id="room-lamp-glow" x="272" y="320" fill="#FFE87C" opacity="0.12"/>
    <!-- Book on nightstand -->
    <rect x="326" y="350" fill="#E63946" opacity="0.9"/>
    <rect x="328" y="344" fill="#C82836"/>

    <!-- ===== BOOKSHELF ===== -->
    <rect x="560" y="60" fill="#6B4226"/>
    <rect x="558" y="58" fill="none" stroke="#5A3020" stroke-width="4"/>
    <!-- Shelf boards -->
    <rect x="558" y="126" fill="#5A3020"/>
    <rect x="558" y="192" fill="#5A3020"/>
    <rect x="558" y="258" fill="#5A3020"/>
    <!-- Books row 1 -->
    <rect x="566" y="66" fill="#E63946"/>
    <rect x="582" y="70" fill="#2A9D8F"/>
    <rect x="596" y="66" fill="#E9C46A"/>
    <rect x="614" y="68" fill="#264653"/>
    <rect x="629" y="66" fill="#F4A261"/>
    <rect x="646" y="70" fill="#E76F51"/>
    <rect x="659" y="66" fill="#48CAE4"/>
    <rect x="675" y="68" fill="#A8DADC"/>
    <rect x="689" y="66" fill="#6B4226"/>
    <rect x="707" y="70" fill="#457B9D"/>
    <rect x="722" y="66" fill="#F1FAEE"/>
    <!-- Books row 2 -->
    <rect x="566" y="134" fill="#457B9D"/>
    <rect x="581" y="136" fill="#E63946"/>
    <rect x="598" y="134" fill="#2A9D8F"/>
    <rect x="612" y="138" fill="#E9C46A"/>
    <rect x="630" y="134" fill="#264653"/>
    <rect x="645" y="136" fill="#F4A261"/>
    <rect x="661" y="134" fill="#E76F51"/>
    <rect x="674" y="138" fill="#48CAE4"/>
    <rect x="691" y="134" fill="#A8DADC"/>
    <rect x="706" y="136" fill="#F1FAEE"/>
    <rect x="724" y="134" fill="#6B4226"/>
    <!-- Books row 3 -->
    <rect x="566" y="200" fill="#E9C46A"/>
    <rect x="583" y="202" fill="#E63946"/>
    <rect x="597" y="200" fill="#457B9D"/>
    <rect x="613" y="204" fill="#2A9D8F"/>
    <rect x="628" y="200" fill="#F4A261"/>
    <rect x="646" y="202" fill="#264653"/>
    <!-- Plant on shelf -->
    <rect x="666" y="196" fill="#8B4513"/>
    <rect x="668" y="193" fill="#6B3410"/>
    <rect x="664" y="184" fill="#4DAF3C"/>
    <rect x="668" y="178" fill="#5DC04C"/>
    <rect x="672" y="172" fill="#6DD05C"/>
    <!-- Decorative item -->
    <rect x="700" y="200" fill="#C4920A"/>
    <rect x="702" y="196" fill="#E4B020"/>
    <rect x="706" y="190" fill="#E4B020"/>

    <!-- ===== DESK ===== -->
    <rect x="460" y="320" fill="#8B6914"/>
    <rect x="458" y="316" fill="#C4920A"/>
    <!-- Desk legs -->
    <rect x="464" y="336" fill="#7A5A10"/>
    <rect x="720" y="336" fill="#7A5A10"/>

    <!-- Monitor -->
    <rect x="540" y="240" fill="#1A1A2E"/>
    <rect x="544" y="244" fill="#2A4080"/>
    <rect x="546" y="246" fill="#0D1B4B"/>
    <!-- Screen content -->
    <rect x="550" y="250" fill="#1E3A6E"/>
    <rect x="554" y="256" fill="#4A8FD4" opacity="0.8"/>
    <rect x="554" y="266" fill="#4A8FD4" opacity="0.5"/>
    <rect x="554" y="274" fill="#4A8FD4" opacity="0.5"/>
    <rect x="554" y="282" fill="#4A8FD4" opacity="0.5"/>
    <rect x="554" y="292" fill="#4A8FD4" opacity="0.5"/>
    <!-- Screen glow -->
    <rect id="room-screen-glow" x="530" y="235" fill="#4A8FD4" opacity="0.05"/>
    <!-- Monitor stand -->
    <rect x="576" y="318" fill="#2A2A2A"/>
    <rect x="570" y="322" fill="#333"/>

    <!-- Keyboard -->
    <rect x="520" y="330" fill="#2A2A2A"/>
    <rect x="522" y="332" fill="#333"/>
    <rect x="526" y="334" fill="#444"/>
    <rect x="538" y="334" fill="#444"/>
    <rect x="550" y="334" fill="#444"/>
    <rect x="562" y="334" fill="#444"/>
    <rect x="574" y="334" fill="#444"/>
    <rect x="586" y="334" fill="#444"/>
    <rect x="598" y="334" fill="#444"/>
    <rect x="610" y="334" fill="#444"/>
    <rect x="534" y="340" fill="#444"/>

    <!-- Desk lamp -->
    <rect x="466" y="290" fill="#888"/>
    <rect x="466" y="280" fill="#888"/>
    <rect x="492" y="264" fill="#888"/>
    <rect x="480" y="258" fill="#444"/>
    <rect x="482" y="260" fill="#FFE87C" opacity="0.9"/>
    <rect x="466" y="318" fill="#666"/>
    <!-- Lamp glow on desk -->
    <rect id="room-desklamp-glow" x="458" y="264" fill="#FFE87C" opacity="0.08"/>

    <!-- Pencil cup -->
    <rect x="704" y="308" fill="#2A9D8F"/>
    <rect x="706" y="296" fill="#E63946"/>
    <rect x="712" y="292" fill="#2A2A2A"/>
    <rect x="718" y="294" fill="#E9C46A"/>
    <rect x="724" y="293" fill="#4A8FD4"/>

    <!-- Night overlay (hidden by default) -->
    

    <!-- Thunder flash (hidden) -->
    

    <!-- Definitions -->
    <defs>
      <pattern id="wallTex" x="0" y="0" patternUnits="userSpaceOnUse">
        <rect fill="none"/>
        <rect x="0" y="0" fill="#C0A080" opacity="0.4"/>
        <rect x="20" y="20" fill="#C0A080" opacity="0.4"/>
      </pattern>
      <clipPath id="window-clip">
        <rect x="132" y="72"/>
      </clipPath>
    </defs>
  </svg>